<svg width="383" height="96" viewBox="0 0 383 96" fill="none" xmlns="http://www.w3.org/2000/svg" xmlns:xlink="http://www.w3.org/1999/xlink">
<path d="M84.2236 88C84.2236 92.4183 80.6419 96 76.2236 96H39.1035C34.6852 96 31.1035 92.4183 31.1035 88V51C31.1035 46.5817 34.6852 43 39.1035 43H76.2236C80.6419 43 84.2236 46.5817 84.2236 51V88ZM273.24 88C273.24 92.4183 269.659 96 265.24 96H231.96C227.542 96 223.96 92.4183 223.96 88V61.1661C223.96 54.2083 215.692 50.5671 210.559 55.2645L200.371 64.5887C197.326 67.375 192.662 67.3881 189.602 64.619L179.088 55.1045C173.944 50.4503 165.72 54.0999 165.72 61.0363V88C165.72 92.4183 162.138 96 157.72 96H127C122.582 96 119 92.4183 119 88V51C119 46.5817 122.582 43 127 43H265.24C269.659 43 273.24 46.5817 273.24 51V88ZM332.12 50.6841C332.12 54.9279 335.56 58.3682 339.804 58.3682H374.296C378.714 58.3682 382.296 61.9499 382.296 66.3682V88C382.296 92.4183 378.714 96 374.296 96H296C291.582 96 288 92.4183 288 88V51C288 46.5817 291.582 43 296 43H324.436C328.68 43 332.12 46.4403 332.12 50.6841ZM189.116 32.7982C192.301 36.1548 197.66 36.1182 200.798 32.7184L228.624 2.57376C230.139 0.933102 232.27 0 234.503 0H324.12C328.538 0 332.12 3.58172 332.12 8V31C332.12 35.4183 328.538 39 324.12 39H119L84.5426 38.9123C84.5028 38.9122 84.4867 38.9059 84.4584 38.9338C84.4297 38.9621 84.369 39 84.3288 39H31.1354C31.0389 39 30.9442 38.9121 30.8477 38.9121H8C3.58172 38.9121 0 35.3304 0 30.9121V8C0 3.58172 3.58172 0 8 0H154.562C156.757 0 158.855 0.901695 160.366 2.49392L189.116 32.7982Z" fill="url(#pattern0_3_2)"/>
<defs>
<pattern id="pattern0_3_2" patternUnits="userSpaceOnUse" patternTransform="matrix(5.46 0 0 5.46 0 0)" preserveAspectRatio="none" viewBox="0 0 39 39" width="1" height="1">
<g id="pattern0_3_2_inner">
<circle cx="19.5" cy="19.5" r="19.5" fill="#324376"/>
</g>
</pattern></defs>
</svg>
